<mxfile host="app.diagrams.net" agent="Mozilla/5.0 (Windows NT 10.0; Win64; x64) AppleWebKit/537.36 (KHTML, like Gecko) Chrome/134.0.0.0 Safari/537.36" version="26.1.1">
  <diagram name="第 1 页" id="8BbVlI13uiIT9Rs_BAtg">
    <mxGraphModel dx="1185" dy="627" grid="1" gridSize="10" guides="1" tooltips="1" connect="1" arrows="1" fold="1" page="1" pageScale="1" pageWidth="827" pageHeight="1169" math="0" shadow="0">
      <root>
        <mxCell id="0" />
        <mxCell id="1" parent="0" />
        <mxCell id="H_L5EIwW94OzJUSztVZc-106" value="" style="endArrow=classic;html=1;rounded=0;" edge="1" parent="1">
          <mxGeometry width="50" height="50" relative="1" as="geometry">
            <mxPoint x="209" y="719.67" as="sourcePoint" />
            <mxPoint x="629" y="719.67" as="targetPoint" />
          </mxGeometry>
        </mxCell>
        <mxCell id="H_L5EIwW94OzJUSztVZc-107" value="" style="endArrow=classic;html=1;rounded=0;" edge="1" parent="1">
          <mxGeometry width="50" height="50" relative="1" as="geometry">
            <mxPoint x="209" y="720" as="sourcePoint" />
            <mxPoint x="209" y="510" as="targetPoint" />
          </mxGeometry>
        </mxCell>
        <mxCell id="H_L5EIwW94OzJUSztVZc-108" value="&lt;font style=&quot;font-size: 10px;&quot; face=&quot;Times New Roman&quot;&gt;&lt;i&gt;L/U&lt;/i&gt;&lt;/font&gt;" style="text;html=1;align=center;verticalAlign=middle;resizable=0;points=[];autosize=1;strokeColor=none;fillColor=none;" vertex="1" parent="1">
          <mxGeometry x="169" y="700" width="40" height="30" as="geometry" />
        </mxCell>
        <mxCell id="H_L5EIwW94OzJUSztVZc-109" value="&lt;i style=&quot;font-family: &amp;quot;Times New Roman&amp;quot;; font-size: 10px;&quot;&gt;M&lt;sub&gt;1&lt;/sub&gt;&lt;/i&gt;" style="text;html=1;align=center;verticalAlign=middle;resizable=0;points=[];autosize=1;strokeColor=none;fillColor=none;" vertex="1" parent="1">
          <mxGeometry x="169" y="660" width="40" height="30" as="geometry" />
        </mxCell>
        <mxCell id="H_L5EIwW94OzJUSztVZc-110" value="&lt;i style=&quot;font-family: &amp;quot;Times New Roman&amp;quot;; font-size: 10px;&quot;&gt;M&lt;sub&gt;2&lt;/sub&gt;&lt;/i&gt;" style="text;html=1;align=center;verticalAlign=middle;resizable=0;points=[];autosize=1;strokeColor=none;fillColor=none;" vertex="1" parent="1">
          <mxGeometry x="169" y="620" width="40" height="30" as="geometry" />
        </mxCell>
        <mxCell id="H_L5EIwW94OzJUSztVZc-111" value="&lt;font face=&quot;Times New Roman&quot;&gt;&lt;span style=&quot;font-size: 10px;&quot;&gt;&lt;i&gt;CA&lt;/i&gt;&lt;/span&gt;&lt;/font&gt;" style="text;html=1;align=center;verticalAlign=middle;resizable=0;points=[];autosize=1;strokeColor=none;fillColor=none;" vertex="1" parent="1">
          <mxGeometry x="169" y="540" width="40" height="30" as="geometry" />
        </mxCell>
        <mxCell id="H_L5EIwW94OzJUSztVZc-112" value="&lt;span style=&quot;font-size: 8.33333px;&quot;&gt;O&lt;sub&gt;21&lt;/sub&gt;&lt;/span&gt;" style="rounded=0;whiteSpace=wrap;html=1;fontSize=10;fontStyle=2;fontFamily=Times New Roman;fillColor=#d5e8d4;strokeColor=#82b366;" vertex="1" parent="1">
          <mxGeometry x="319" y="590" width="60" height="20" as="geometry" />
        </mxCell>
        <mxCell id="H_L5EIwW94OzJUSztVZc-113" value="&lt;sub&gt;&lt;span&gt;O&lt;/span&gt;12&lt;/sub&gt;" style="rounded=0;whiteSpace=wrap;html=1;fontSize=10;fontFamily=Times New Roman;fontStyle=2;fillColor=#d0cee2;strokeColor=#56517e;dashed=1;dashPattern=8 8;opacity=60;" vertex="1" parent="1">
          <mxGeometry x="304" y="625" width="75" height="20" as="geometry" />
        </mxCell>
        <mxCell id="H_L5EIwW94OzJUSztVZc-114" value="O&lt;sub&gt;22&lt;/sub&gt;" style="rounded=0;whiteSpace=wrap;html=1;fontSize=10;fontStyle=2;fontFamily=Times New Roman;fillColor=#d5e8d4;strokeColor=#82b366;" vertex="1" parent="1">
          <mxGeometry x="379" y="590" width="60" height="20" as="geometry" />
        </mxCell>
        <mxCell id="H_L5EIwW94OzJUSztVZc-115" value="&lt;font&gt;O&lt;sub&gt;31&lt;/sub&gt;&lt;/font&gt;" style="rounded=0;whiteSpace=wrap;html=1;fontFamily=Times New Roman;fillColor=#ffe6cc;strokeColor=#d79b00;fontStyle=2;fontSize=10;opacity=60;dashed=1;dashPattern=8 8;" vertex="1" parent="1">
          <mxGeometry x="289" y="665" width="50" height="20" as="geometry" />
        </mxCell>
        <mxCell id="H_L5EIwW94OzJUSztVZc-116" value="charge" style="rounded=0;whiteSpace=wrap;html=1;fontFamily=Times New Roman;fontStyle=2;fontSize=10;fillColor=#f8cecc;strokeColor=#b85450;gradientColor=#ea6b66;" vertex="1" parent="1">
          <mxGeometry x="389" y="545" width="40" height="20" as="geometry" />
        </mxCell>
        <mxCell id="H_L5EIwW94OzJUSztVZc-117" value="charge" style="rounded=0;whiteSpace=wrap;html=1;fontFamily=Times New Roman;fontStyle=2;fontSize=10;fillColor=#dae8fc;gradientColor=#7ea6e0;strokeColor=#6c8ebf;" vertex="1" parent="1">
          <mxGeometry x="519" y="545" width="36" height="20" as="geometry" />
        </mxCell>
        <mxCell id="H_L5EIwW94OzJUSztVZc-118" value="&lt;font style=&quot;font-size: 10px;&quot;&gt;&lt;i&gt;O&lt;sub style=&quot;&quot;&gt;32&lt;/sub&gt;&lt;/i&gt;&lt;/font&gt;" style="rounded=0;whiteSpace=wrap;html=1;fontFamily=Times New Roman;fillColor=#ffe6cc;strokeColor=#d79b00;dashed=1;dashPattern=8 8;opacity=60;" vertex="1" parent="1">
          <mxGeometry x="439" y="590" width="40" height="20" as="geometry" />
        </mxCell>
        <mxCell id="H_L5EIwW94OzJUSztVZc-119" value="" style="endArrow=classic;html=1;rounded=0;entryX=0;entryY=0.5;entryDx=0;entryDy=0;strokeColor=light-dark(#66c4ff, #004a4a);endSize=3;" edge="1" parent="1" target="H_L5EIwW94OzJUSztVZc-121">
          <mxGeometry width="50" height="50" relative="1" as="geometry">
            <mxPoint x="209" y="720" as="sourcePoint" />
            <mxPoint x="269" y="640" as="targetPoint" />
          </mxGeometry>
        </mxCell>
        <mxCell id="H_L5EIwW94OzJUSztVZc-120" value="" style="rounded=0;whiteSpace=wrap;html=1;fontSize=10;fontFamily=Times New Roman;fontStyle=2;fillColor=#d0cee2;strokeColor=#56517e;" vertex="1" parent="1">
          <mxGeometry x="369" y="510" width="20" height="10" as="geometry" />
        </mxCell>
        <mxCell id="H_L5EIwW94OzJUSztVZc-121" value="&lt;span style=&quot;font-size: 8.33333px;&quot;&gt;O&lt;/span&gt;&lt;span style=&quot;font-size: 8.33333px;&quot;&gt;11&lt;/span&gt;" style="rounded=0;whiteSpace=wrap;html=1;fontSize=10;fontFamily=Times New Roman;fontStyle=2;fillColor=#d0cee2;strokeColor=#56517e;" vertex="1" parent="1">
          <mxGeometry x="249" y="665" width="40" height="20" as="geometry" />
        </mxCell>
        <mxCell id="H_L5EIwW94OzJUSztVZc-122" value="" style="rounded=0;whiteSpace=wrap;html=1;fontSize=10;fontStyle=2;fontFamily=Times New Roman;fillColor=#d5e8d4;strokeColor=#82b366;" vertex="1" parent="1">
          <mxGeometry x="429" y="510" width="20" height="10" as="geometry" />
        </mxCell>
        <mxCell id="H_L5EIwW94OzJUSztVZc-123" value="" style="rounded=0;whiteSpace=wrap;html=1;fontFamily=Times New Roman;fillColor=#ffe6cc;strokeColor=#d79b00;" vertex="1" parent="1">
          <mxGeometry x="499" y="510" width="20" height="10" as="geometry" />
        </mxCell>
        <mxCell id="H_L5EIwW94OzJUSztVZc-124" value="" style="endArrow=none;html=1;rounded=0;strokeColor=light-dark(#66c4ff, #004a4a);jumpSize=6;endSize=3;startFill=0;strokeWidth=3;" edge="1" parent="1">
          <mxGeometry width="50" height="50" relative="1" as="geometry">
            <mxPoint x="579" y="515" as="sourcePoint" />
            <mxPoint x="599" y="515" as="targetPoint" />
          </mxGeometry>
        </mxCell>
        <mxCell id="H_L5EIwW94OzJUSztVZc-125" value="" style="endArrow=none;html=1;rounded=0;strokeColor=#FF6666;endSize=3;fillColor=#fad9d5;exitX=1;exitY=0.5;exitDx=0;exitDy=0;strokeWidth=3;startFill=0;" edge="1" parent="1">
          <mxGeometry width="50" height="50" relative="1" as="geometry">
            <mxPoint x="579" y="534.8299999999999" as="sourcePoint" />
            <mxPoint x="599" y="534.8299999999999" as="targetPoint" />
          </mxGeometry>
        </mxCell>
        <mxCell id="H_L5EIwW94OzJUSztVZc-126" value="AGV1" style="text;html=1;align=center;verticalAlign=middle;resizable=0;points=[];autosize=1;strokeColor=none;fillColor=none;fontSize=10;fontFamily=Times New Roman;fontStyle=2" vertex="1" parent="1">
          <mxGeometry x="589" y="500" width="50" height="30" as="geometry" />
        </mxCell>
        <mxCell id="H_L5EIwW94OzJUSztVZc-127" value="AGV2" style="text;html=1;align=center;verticalAlign=middle;resizable=0;points=[];autosize=1;strokeColor=none;fillColor=none;fontSize=10;fontFamily=Times New Roman;fontStyle=2" vertex="1" parent="1">
          <mxGeometry x="589" y="520" width="50" height="30" as="geometry" />
        </mxCell>
        <mxCell id="H_L5EIwW94OzJUSztVZc-128" value="Job1" style="text;html=1;align=center;verticalAlign=middle;resizable=0;points=[];autosize=1;strokeColor=none;fillColor=none;fontSize=10;fontFamily=Times New Roman;fontStyle=2" vertex="1" parent="1">
          <mxGeometry x="389" y="500" width="40" height="30" as="geometry" />
        </mxCell>
        <mxCell id="H_L5EIwW94OzJUSztVZc-129" value="Job2" style="text;html=1;align=center;verticalAlign=middle;resizable=0;points=[];autosize=1;strokeColor=none;fillColor=none;fontSize=10;fontFamily=Times New Roman;fontStyle=2" vertex="1" parent="1">
          <mxGeometry x="449" y="500" width="40" height="30" as="geometry" />
        </mxCell>
        <mxCell id="H_L5EIwW94OzJUSztVZc-130" value="Job3" style="text;html=1;align=center;verticalAlign=middle;resizable=0;points=[];autosize=1;strokeColor=none;fillColor=none;fontSize=10;fontFamily=Times New Roman;fontStyle=2" vertex="1" parent="1">
          <mxGeometry x="519" y="500" width="40" height="30" as="geometry" />
        </mxCell>
        <mxCell id="H_L5EIwW94OzJUSztVZc-131" value="" style="endArrow=classic;html=1;rounded=0;strokeColor=#FF6666;endSize=3;fillColor=#fad9d5;entryX=0;entryY=0.5;entryDx=0;entryDy=0;dashed=1;exitX=0;exitY=0.5;exitDx=0;exitDy=0;" edge="1" parent="1" source="H_L5EIwW94OzJUSztVZc-114" target="H_L5EIwW94OzJUSztVZc-116">
          <mxGeometry width="50" height="50" relative="1" as="geometry">
            <mxPoint x="259" y="595" as="sourcePoint" />
            <mxPoint x="289" y="475" as="targetPoint" />
          </mxGeometry>
        </mxCell>
        <mxCell id="H_L5EIwW94OzJUSztVZc-132" value="time" style="text;html=1;align=center;verticalAlign=middle;resizable=0;points=[];autosize=1;strokeColor=none;fillColor=none;fontSize=10;fontFamily=Times New Roman;fontStyle=0" vertex="1" parent="1">
          <mxGeometry x="619" y="690" width="40" height="30" as="geometry" />
        </mxCell>
        <mxCell id="H_L5EIwW94OzJUSztVZc-133" value="C&lt;sub&gt;max&lt;/sub&gt;" style="text;html=1;align=center;verticalAlign=middle;resizable=0;points=[];autosize=1;strokeColor=none;fillColor=none;fontSize=10;fontFamily=Times New Roman;fontStyle=2" vertex="1" parent="1">
          <mxGeometry x="599" y="720" width="40" height="30" as="geometry" />
        </mxCell>
        <mxCell id="H_L5EIwW94OzJUSztVZc-134" value="" style="endArrow=classic;html=1;rounded=0;strokeColor=#FF6666;endSize=3;fillColor=#fad9d5;entryX=0;entryY=0.5;entryDx=0;entryDy=0;" edge="1" parent="1" target="H_L5EIwW94OzJUSztVZc-121">
          <mxGeometry width="50" height="50" relative="1" as="geometry">
            <mxPoint x="209" y="720" as="sourcePoint" />
            <mxPoint x="249" y="680" as="targetPoint" />
          </mxGeometry>
        </mxCell>
        <mxCell id="H_L5EIwW94OzJUSztVZc-135" value="" style="endArrow=classic;html=1;rounded=0;strokeColor=light-dark(#66c4ff, #004a4a);jumpSize=6;endSize=3;entryX=0;entryY=0.5;entryDx=0;entryDy=0;exitX=1;exitY=0.5;exitDx=0;exitDy=0;" edge="1" parent="1" source="H_L5EIwW94OzJUSztVZc-121" target="H_L5EIwW94OzJUSztVZc-113">
          <mxGeometry width="50" height="50" relative="1" as="geometry">
            <mxPoint x="289" y="685" as="sourcePoint" />
            <mxPoint x="304" y="645" as="targetPoint" />
          </mxGeometry>
        </mxCell>
        <mxCell id="H_L5EIwW94OzJUSztVZc-136" value="" style="endArrow=classic;html=1;rounded=0;strokeColor=#FF6666;endSize=3;fillColor=#fad9d5;entryX=0;entryY=0.5;entryDx=0;entryDy=0;" edge="1" parent="1" target="H_L5EIwW94OzJUSztVZc-112">
          <mxGeometry width="50" height="50" relative="1" as="geometry">
            <mxPoint x="289" y="720" as="sourcePoint" />
            <mxPoint x="339" y="790" as="targetPoint" />
          </mxGeometry>
        </mxCell>
        <mxCell id="H_L5EIwW94OzJUSztVZc-137" value="&lt;i style=&quot;font-family: &amp;quot;Times New Roman&amp;quot;; font-size: 10px;&quot;&gt;M&lt;sub&gt;3&lt;/sub&gt;&lt;/i&gt;" style="text;html=1;align=center;verticalAlign=middle;resizable=0;points=[];autosize=1;strokeColor=none;fillColor=none;" vertex="1" parent="1">
          <mxGeometry x="169" y="580" width="40" height="30" as="geometry" />
        </mxCell>
        <mxCell id="H_L5EIwW94OzJUSztVZc-138" value="O&lt;sub&gt;23&lt;/sub&gt;" style="rounded=0;whiteSpace=wrap;html=1;fontSize=10;fontStyle=2;fontFamily=Times New Roman;fillColor=#d5e8d4;strokeColor=#82b366;" vertex="1" parent="1">
          <mxGeometry x="495" y="625" width="50" height="20" as="geometry" />
        </mxCell>
        <mxCell id="H_L5EIwW94OzJUSztVZc-139" value="&lt;font style=&quot;font-size: 10px;&quot;&gt;&lt;i&gt;O&lt;sub style=&quot;&quot;&gt;33&lt;/sub&gt;&lt;/i&gt;&lt;/font&gt;" style="rounded=0;whiteSpace=wrap;html=1;fontFamily=Times New Roman;fillColor=#ffe6cc;strokeColor=#d79b00;dashed=1;dashPattern=8 8;opacity=60;" vertex="1" parent="1">
          <mxGeometry x="479" y="590" width="55" height="20" as="geometry" />
        </mxCell>
        <mxCell id="H_L5EIwW94OzJUSztVZc-140" value="" style="endArrow=classic;html=1;rounded=0;strokeColor=#FF6666;endSize=3;fillColor=#fad9d5;dashed=1;exitX=0;exitY=0.5;exitDx=0;exitDy=0;" edge="1" parent="1" source="H_L5EIwW94OzJUSztVZc-121">
          <mxGeometry width="50" height="50" relative="1" as="geometry">
            <mxPoint x="244" y="705" as="sourcePoint" />
            <mxPoint x="289" y="720" as="targetPoint" />
          </mxGeometry>
        </mxCell>
        <mxCell id="H_L5EIwW94OzJUSztVZc-141" value="" style="endArrow=classic;html=1;rounded=0;strokeColor=#FF6666;endSize=3;fillColor=#fad9d5;" edge="1" parent="1">
          <mxGeometry width="50" height="50" relative="1" as="geometry">
            <mxPoint x="469" y="640" as="sourcePoint" />
            <mxPoint x="489" y="720" as="targetPoint" />
          </mxGeometry>
        </mxCell>
        <mxCell id="H_L5EIwW94OzJUSztVZc-142" value="" style="endArrow=classic;html=1;rounded=0;strokeColor=light-dark(#66c4ff, #004a4a);jumpSize=6;endSize=3;exitX=1;exitY=0.5;exitDx=0;exitDy=0;dashed=1;" edge="1" parent="1" source="H_L5EIwW94OzJUSztVZc-117">
          <mxGeometry width="50" height="50" relative="1" as="geometry">
            <mxPoint x="479" y="550" as="sourcePoint" />
            <mxPoint x="579" y="600" as="targetPoint" />
          </mxGeometry>
        </mxCell>
        <mxCell id="H_L5EIwW94OzJUSztVZc-143" value="&lt;sub&gt;&lt;span&gt;O&lt;/span&gt;13&lt;/sub&gt;" style="rounded=0;whiteSpace=wrap;html=1;fontSize=10;fontFamily=Times New Roman;fontStyle=2;fillColor=#d0cee2;strokeColor=#56517e;opacity=60;dashed=1;dashPattern=8 8;" vertex="1" parent="1">
          <mxGeometry x="379" y="625" width="50" height="20" as="geometry" />
        </mxCell>
        <mxCell id="H_L5EIwW94OzJUSztVZc-144" value="" style="endArrow=classic;html=1;rounded=0;strokeColor=#FF6666;endSize=3;fillColor=#fad9d5;dashed=1;entryX=1;entryY=0.5;entryDx=0;entryDy=0;" edge="1" parent="1" target="H_L5EIwW94OzJUSztVZc-138">
          <mxGeometry width="50" height="50" relative="1" as="geometry">
            <mxPoint x="489" y="720" as="sourcePoint" />
            <mxPoint x="509" y="680" as="targetPoint" />
          </mxGeometry>
        </mxCell>
        <mxCell id="H_L5EIwW94OzJUSztVZc-145" value="" style="endArrow=none;html=1;rounded=0;strokeColor=light-dark(#66c4ff, #004a4a);jumpSize=6;endSize=3;entryX=0;entryY=0.5;entryDx=0;entryDy=0;exitX=0;exitY=0.5;exitDx=0;exitDy=0;startFill=0;flowAnimation=0;" edge="1" parent="1" source="H_L5EIwW94OzJUSztVZc-121" target="H_L5EIwW94OzJUSztVZc-115">
          <mxGeometry width="50" height="50" relative="1" as="geometry">
            <mxPoint x="339" y="790" as="sourcePoint" />
            <mxPoint x="354" y="750" as="targetPoint" />
          </mxGeometry>
        </mxCell>
        <mxCell id="H_L5EIwW94OzJUSztVZc-146" value="" style="endArrow=classic;html=1;rounded=0;strokeColor=#FF6666;endSize=3;fillColor=#fad9d5;exitX=1;exitY=0.5;exitDx=0;exitDy=0;" edge="1" parent="1" source="H_L5EIwW94OzJUSztVZc-138">
          <mxGeometry width="50" height="50" relative="1" as="geometry">
            <mxPoint x="519" y="680" as="sourcePoint" />
            <mxPoint x="569" y="720" as="targetPoint" />
          </mxGeometry>
        </mxCell>
        <mxCell id="H_L5EIwW94OzJUSztVZc-147" value="" style="endArrow=classic;html=1;rounded=0;strokeColor=#FF6666;endSize=3;fillColor=#fad9d5;entryX=0;entryY=0.5;entryDx=0;entryDy=0;dashed=1;exitX=0;exitY=0.5;exitDx=0;exitDy=0;" edge="1" parent="1" source="H_L5EIwW94OzJUSztVZc-112" target="H_L5EIwW94OzJUSztVZc-114">
          <mxGeometry width="50" height="50" relative="1" as="geometry">
            <mxPoint x="389" y="610" as="sourcePoint" />
            <mxPoint x="399" y="565" as="targetPoint" />
          </mxGeometry>
        </mxCell>
        <mxCell id="H_L5EIwW94OzJUSztVZc-148" value="" style="endArrow=none;html=1;rounded=0;strokeColor=light-dark(#66c4ff, #004a4a);jumpSize=6;endSize=3;entryX=1;entryY=0.5;entryDx=0;entryDy=0;exitX=0;exitY=0.5;exitDx=0;exitDy=0;startFill=0;flowAnimation=0;dashed=1;" edge="1" parent="1" source="H_L5EIwW94OzJUSztVZc-113" target="H_L5EIwW94OzJUSztVZc-113">
          <mxGeometry width="50" height="50" relative="1" as="geometry">
            <mxPoint x="359" y="674.83" as="sourcePoint" />
            <mxPoint x="399" y="674.83" as="targetPoint" />
          </mxGeometry>
        </mxCell>
        <mxCell id="H_L5EIwW94OzJUSztVZc-149" value="" style="endArrow=classic;html=1;rounded=0;strokeColor=light-dark(#66c4ff, #004a4a);jumpSize=6;endSize=3;" edge="1" parent="1">
          <mxGeometry width="50" height="50" relative="1" as="geometry">
            <mxPoint x="399" y="680" as="sourcePoint" />
            <mxPoint x="429" y="600" as="targetPoint" />
          </mxGeometry>
        </mxCell>
        <mxCell id="H_L5EIwW94OzJUSztVZc-150" value="" style="endArrow=classic;html=1;rounded=0;strokeColor=light-dark(#66c4ff, #004a4a);jumpSize=6;endSize=3;exitX=1;exitY=0.5;exitDx=0;exitDy=0;dashed=1;" edge="1" parent="1" source="H_L5EIwW94OzJUSztVZc-113">
          <mxGeometry width="50" height="50" relative="1" as="geometry">
            <mxPoint x="345" y="675" as="sourcePoint" />
            <mxPoint x="399" y="680" as="targetPoint" />
          </mxGeometry>
        </mxCell>
        <mxCell id="H_L5EIwW94OzJUSztVZc-151" value="" style="endArrow=none;html=1;rounded=0;strokeColor=light-dark(#66c4ff, #004a4a);jumpSize=6;endSize=3;entryX=0;entryY=0.5;entryDx=0;entryDy=0;startFill=0;flowAnimation=0;exitX=0.833;exitY=0.5;exitDx=0;exitDy=0;exitPerimeter=0;" edge="1" parent="1" source="H_L5EIwW94OzJUSztVZc-114" target="H_L5EIwW94OzJUSztVZc-118">
          <mxGeometry width="50" height="50" relative="1" as="geometry">
            <mxPoint x="429" y="600" as="sourcePoint" />
            <mxPoint x="443" y="599.9" as="targetPoint" />
          </mxGeometry>
        </mxCell>
        <mxCell id="H_L5EIwW94OzJUSztVZc-152" value="" style="endArrow=none;html=1;rounded=0;strokeColor=light-dark(#66c4ff, #004a4a);jumpSize=6;endSize=3;entryX=1;entryY=0.5;entryDx=0;entryDy=0;startFill=0;flowAnimation=0;exitX=0.833;exitY=0.5;exitDx=0;exitDy=0;exitPerimeter=0;dashed=1;" edge="1" parent="1" target="H_L5EIwW94OzJUSztVZc-118">
          <mxGeometry width="50" height="50" relative="1" as="geometry">
            <mxPoint x="439" y="599.89" as="sourcePoint" />
            <mxPoint x="449" y="599.89" as="targetPoint" />
          </mxGeometry>
        </mxCell>
        <mxCell id="H_L5EIwW94OzJUSztVZc-153" value="" style="endArrow=classic;html=1;rounded=0;strokeColor=light-dark(#66c4ff, #004a4a);jumpSize=6;endSize=3;entryX=0;entryY=0.5;entryDx=0;entryDy=0;exitX=1;exitY=0.5;exitDx=0;exitDy=0;" edge="1" parent="1" source="H_L5EIwW94OzJUSztVZc-118" target="H_L5EIwW94OzJUSztVZc-138">
          <mxGeometry width="50" height="50" relative="1" as="geometry">
            <mxPoint x="459" y="560" as="sourcePoint" />
            <mxPoint x="439" y="610" as="targetPoint" />
          </mxGeometry>
        </mxCell>
        <mxCell id="H_L5EIwW94OzJUSztVZc-154" value="" style="endArrow=classic;html=1;rounded=0;strokeColor=#FF6666;endSize=3;fillColor=#fad9d5;dashed=1;exitX=1;exitY=0.5;exitDx=0;exitDy=0;" edge="1" parent="1" source="H_L5EIwW94OzJUSztVZc-116">
          <mxGeometry width="50" height="50" relative="1" as="geometry">
            <mxPoint x="489" y="730" as="sourcePoint" />
            <mxPoint x="469" y="640" as="targetPoint" />
          </mxGeometry>
        </mxCell>
        <mxCell id="H_L5EIwW94OzJUSztVZc-155" value="" style="endArrow=classic;html=1;rounded=0;strokeColor=light-dark(#66c4ff, #004a4a);jumpSize=6;endSize=3;" edge="1" parent="1">
          <mxGeometry width="50" height="50" relative="1" as="geometry">
            <mxPoint x="579" y="600" as="sourcePoint" />
            <mxPoint x="609" y="720" as="targetPoint" />
          </mxGeometry>
        </mxCell>
        <mxCell id="H_L5EIwW94OzJUSztVZc-156" value="" style="endArrow=classic;html=1;rounded=0;strokeColor=light-dark(#66c4ff, #004a4a);jumpSize=6;endSize=3;exitX=0;exitY=0.5;exitDx=0;exitDy=0;dashed=1;entryX=0;entryY=0.5;entryDx=0;entryDy=0;" edge="1" parent="1" source="H_L5EIwW94OzJUSztVZc-138" target="H_L5EIwW94OzJUSztVZc-117">
          <mxGeometry width="50" height="50" relative="1" as="geometry">
            <mxPoint x="580" y="565" as="sourcePoint" />
            <mxPoint x="629" y="620" as="targetPoint" />
          </mxGeometry>
        </mxCell>
      </root>
    </mxGraphModel>
  </diagram>
</mxfile>
